<mxfile host="Electron" modified="2025-04-28T10:07:15.255Z" agent="Mozilla/5.0 (Windows NT 10.0; Win64; x64) AppleWebKit/537.36 (KHTML, like Gecko) draw.io/23.0.2 Chrome/120.0.6099.109 Electron/28.1.0 Safari/537.36" etag="dpyt6H_DM0E0kULRfxSH" version="23.0.2" type="device">
  <diagram name="diagram" id="5M_qQgPhQ8klrHqW5bct">
    <mxGraphModel dx="897" dy="616" grid="1" gridSize="10" guides="1" tooltips="1" connect="1" arrows="1" fold="1" page="1" pageScale="1" pageWidth="3300" pageHeight="2339" math="0" shadow="0">
      <root>
        <mxCell id="0" />
        <mxCell id="1" parent="0" />
        <mxCell id="JqMCCjy-eIhB1s-yT85j-1" value="" style="rounded=0;whiteSpace=wrap;html=1;" vertex="1" parent="1">
          <mxGeometry x="300" y="260" width="190" height="270" as="geometry" />
        </mxCell>
        <mxCell id="JqMCCjy-eIhB1s-yT85j-2" value="Hex Cube Black Flight Controller" style="text;html=1;strokeColor=none;fillColor=none;align=right;verticalAlign=middle;whiteSpace=wrap;rounded=0;fontStyle=1" vertex="1" parent="1">
          <mxGeometry x="410" y="530" width="80" height="50" as="geometry" />
        </mxCell>
        <mxCell id="JqMCCjy-eIhB1s-yT85j-3" style="edgeStyle=orthogonalEdgeStyle;rounded=0;orthogonalLoop=1;jettySize=auto;html=1;exitX=1;exitY=0.5;exitDx=0;exitDy=0;entryX=0;entryY=0.5;entryDx=0;entryDy=0;" edge="1" parent="1" source="JqMCCjy-eIhB1s-yT85j-4" target="JqMCCjy-eIhB1s-yT85j-17">
          <mxGeometry relative="1" as="geometry">
            <Array as="points">
              <mxPoint x="510" y="280" />
              <mxPoint x="510" y="200" />
            </Array>
          </mxGeometry>
        </mxCell>
        <mxCell id="JqMCCjy-eIhB1s-yT85j-4" value="OUT 1" style="text;html=1;strokeColor=none;fillColor=none;align=right;verticalAlign=middle;whiteSpace=wrap;rounded=0;" vertex="1" parent="1">
          <mxGeometry x="420" y="270" width="60" height="20" as="geometry" />
        </mxCell>
        <mxCell id="JqMCCjy-eIhB1s-yT85j-5" style="edgeStyle=orthogonalEdgeStyle;rounded=0;orthogonalLoop=1;jettySize=auto;html=1;exitX=1;exitY=0.5;exitDx=0;exitDy=0;entryX=0;entryY=0.5;entryDx=0;entryDy=0;" edge="1" parent="1" source="JqMCCjy-eIhB1s-yT85j-6" target="JqMCCjy-eIhB1s-yT85j-18">
          <mxGeometry relative="1" as="geometry">
            <Array as="points">
              <mxPoint x="520" y="300" />
              <mxPoint x="520" y="250" />
            </Array>
          </mxGeometry>
        </mxCell>
        <mxCell id="JqMCCjy-eIhB1s-yT85j-6" value="OUT 2" style="text;html=1;strokeColor=none;fillColor=none;align=right;verticalAlign=middle;whiteSpace=wrap;rounded=0;" vertex="1" parent="1">
          <mxGeometry x="420" y="290" width="60" height="20" as="geometry" />
        </mxCell>
        <mxCell id="JqMCCjy-eIhB1s-yT85j-7" style="edgeStyle=orthogonalEdgeStyle;rounded=0;orthogonalLoop=1;jettySize=auto;html=1;exitX=1;exitY=0.5;exitDx=0;exitDy=0;entryX=0;entryY=0.5;entryDx=0;entryDy=0;" edge="1" parent="1" source="JqMCCjy-eIhB1s-yT85j-8" target="JqMCCjy-eIhB1s-yT85j-19">
          <mxGeometry relative="1" as="geometry">
            <Array as="points">
              <mxPoint x="530" y="320" />
              <mxPoint x="530" y="300" />
            </Array>
          </mxGeometry>
        </mxCell>
        <mxCell id="JqMCCjy-eIhB1s-yT85j-8" value="OUT 3" style="text;html=1;strokeColor=none;fillColor=none;align=right;verticalAlign=middle;whiteSpace=wrap;rounded=0;" vertex="1" parent="1">
          <mxGeometry x="420" y="310" width="60" height="20" as="geometry" />
        </mxCell>
        <mxCell id="JqMCCjy-eIhB1s-yT85j-9" style="edgeStyle=orthogonalEdgeStyle;rounded=0;orthogonalLoop=1;jettySize=auto;html=1;exitX=1;exitY=0.5;exitDx=0;exitDy=0;entryX=0;entryY=0.5;entryDx=0;entryDy=0;" edge="1" parent="1" source="JqMCCjy-eIhB1s-yT85j-10" target="JqMCCjy-eIhB1s-yT85j-20">
          <mxGeometry relative="1" as="geometry">
            <Array as="points">
              <mxPoint x="530" y="340" />
              <mxPoint x="530" y="360" />
            </Array>
          </mxGeometry>
        </mxCell>
        <mxCell id="JqMCCjy-eIhB1s-yT85j-10" value="OUT 4" style="text;html=1;strokeColor=none;fillColor=none;align=right;verticalAlign=middle;whiteSpace=wrap;rounded=0;" vertex="1" parent="1">
          <mxGeometry x="420" y="330" width="60" height="20" as="geometry" />
        </mxCell>
        <mxCell id="JqMCCjy-eIhB1s-yT85j-11" style="edgeStyle=orthogonalEdgeStyle;rounded=0;orthogonalLoop=1;jettySize=auto;html=1;exitX=1;exitY=0.5;exitDx=0;exitDy=0;entryX=0;entryY=0.5;entryDx=0;entryDy=0;" edge="1" parent="1" source="JqMCCjy-eIhB1s-yT85j-12" target="JqMCCjy-eIhB1s-yT85j-21">
          <mxGeometry relative="1" as="geometry">
            <Array as="points">
              <mxPoint x="520" y="360" />
              <mxPoint x="520" y="410" />
            </Array>
          </mxGeometry>
        </mxCell>
        <mxCell id="JqMCCjy-eIhB1s-yT85j-12" value="OUT 5" style="text;html=1;strokeColor=none;fillColor=none;align=right;verticalAlign=middle;whiteSpace=wrap;rounded=0;" vertex="1" parent="1">
          <mxGeometry x="420" y="350" width="60" height="20" as="geometry" />
        </mxCell>
        <mxCell id="JqMCCjy-eIhB1s-yT85j-13" style="edgeStyle=orthogonalEdgeStyle;rounded=0;orthogonalLoop=1;jettySize=auto;html=1;exitX=1;exitY=0.5;exitDx=0;exitDy=0;entryX=0;entryY=0.5;entryDx=0;entryDy=0;" edge="1" parent="1" source="JqMCCjy-eIhB1s-yT85j-14" target="JqMCCjy-eIhB1s-yT85j-22">
          <mxGeometry relative="1" as="geometry">
            <Array as="points">
              <mxPoint x="510" y="380" />
              <mxPoint x="510" y="460" />
            </Array>
          </mxGeometry>
        </mxCell>
        <mxCell id="JqMCCjy-eIhB1s-yT85j-14" value="OUT 6" style="text;html=1;strokeColor=none;fillColor=none;align=right;verticalAlign=middle;whiteSpace=wrap;rounded=0;" vertex="1" parent="1">
          <mxGeometry x="420" y="370" width="60" height="20" as="geometry" />
        </mxCell>
        <mxCell id="JqMCCjy-eIhB1s-yT85j-15" value="" style="labelPosition=right;align=left;strokeWidth=1;shape=mxgraph.mockup.markup.curlyBrace;html=1;shadow=0;dashed=0;direction=north;" vertex="1" parent="1">
          <mxGeometry x="430" y="270" width="10" height="120" as="geometry" />
        </mxCell>
        <mxCell id="JqMCCjy-eIhB1s-yT85j-16" value="MAIN" style="text;html=1;strokeColor=none;fillColor=none;align=center;verticalAlign=middle;whiteSpace=wrap;rounded=0;rotation=-90;" vertex="1" parent="1">
          <mxGeometry x="390" y="315" width="60" height="30" as="geometry" />
        </mxCell>
        <mxCell id="JqMCCjy-eIhB1s-yT85j-17" value="Motor 1 with integrated ESC" style="rounded=0;whiteSpace=wrap;html=1;" vertex="1" parent="1">
          <mxGeometry x="560" y="180" width="110" height="40" as="geometry" />
        </mxCell>
        <mxCell id="JqMCCjy-eIhB1s-yT85j-18" value="Motor 2 with integrated ESC" style="rounded=0;whiteSpace=wrap;html=1;" vertex="1" parent="1">
          <mxGeometry x="560" y="230" width="110" height="40" as="geometry" />
        </mxCell>
        <mxCell id="JqMCCjy-eIhB1s-yT85j-19" value="Motor 3 with integrated ESC" style="rounded=0;whiteSpace=wrap;html=1;" vertex="1" parent="1">
          <mxGeometry x="560" y="280" width="110" height="40" as="geometry" />
        </mxCell>
        <mxCell id="JqMCCjy-eIhB1s-yT85j-20" value="Motor 4 with integrated ESC" style="rounded=0;whiteSpace=wrap;html=1;" vertex="1" parent="1">
          <mxGeometry x="560" y="340" width="110" height="40" as="geometry" />
        </mxCell>
        <mxCell id="JqMCCjy-eIhB1s-yT85j-21" value="Motor 5 with integrated ESC" style="rounded=0;whiteSpace=wrap;html=1;" vertex="1" parent="1">
          <mxGeometry x="560" y="390" width="110" height="40" as="geometry" />
        </mxCell>
        <mxCell id="JqMCCjy-eIhB1s-yT85j-22" value="Motor 6 with integrated ESC" style="rounded=0;whiteSpace=wrap;html=1;" vertex="1" parent="1">
          <mxGeometry x="560" y="440" width="110" height="40" as="geometry" />
        </mxCell>
        <mxCell id="JqMCCjy-eIhB1s-yT85j-23" value="TELEM 2" style="text;html=1;strokeColor=none;fillColor=none;align=left;verticalAlign=middle;whiteSpace=wrap;rounded=0;" vertex="1" parent="1">
          <mxGeometry x="300" y="367.5" width="60" height="25" as="geometry" />
        </mxCell>
        <mxCell id="JqMCCjy-eIhB1s-yT85j-24" style="rounded=0;orthogonalLoop=1;jettySize=auto;html=1;exitX=1;exitY=0.5;exitDx=0;exitDy=0;entryX=0;entryY=0.5;entryDx=0;entryDy=0;startArrow=classic;startFill=1;" edge="1" parent="1" source="JqMCCjy-eIhB1s-yT85j-25" target="JqMCCjy-eIhB1s-yT85j-23">
          <mxGeometry relative="1" as="geometry" />
        </mxCell>
        <mxCell id="JqMCCjy-eIhB1s-yT85j-25" value="RC receiver&lt;br&gt;(RP1 radiomaster)" style="rounded=0;whiteSpace=wrap;html=1;" vertex="1" parent="1">
          <mxGeometry x="100" y="360" width="120" height="40" as="geometry" />
        </mxCell>
        <mxCell id="JqMCCjy-eIhB1s-yT85j-26" style="edgeStyle=orthogonalEdgeStyle;rounded=0;orthogonalLoop=1;jettySize=auto;html=1;exitX=0;exitY=0.5;exitDx=0;exitDy=0;entryX=1;entryY=0.5;entryDx=0;entryDy=0;startArrow=classic;startFill=1;" edge="1" parent="1" source="JqMCCjy-eIhB1s-yT85j-27" target="JqMCCjy-eIhB1s-yT85j-28">
          <mxGeometry relative="1" as="geometry" />
        </mxCell>
        <mxCell id="JqMCCjy-eIhB1s-yT85j-27" value="TELEM 1" style="text;html=1;strokeColor=none;fillColor=none;align=left;verticalAlign=middle;whiteSpace=wrap;rounded=0;" vertex="1" parent="1">
          <mxGeometry x="300" y="340" width="60" height="25" as="geometry" />
        </mxCell>
        <mxCell id="JqMCCjy-eIhB1s-yT85j-28" value="Telemetry Radio" style="rounded=0;whiteSpace=wrap;html=1;" vertex="1" parent="1">
          <mxGeometry x="100" y="310" width="120" height="40" as="geometry" />
        </mxCell>
        <mxCell id="JqMCCjy-eIhB1s-yT85j-29" style="rounded=0;orthogonalLoop=1;jettySize=auto;html=1;exitX=1;exitY=0.5;exitDx=0;exitDy=0;entryX=0;entryY=0.5;entryDx=0;entryDy=0;" edge="1" parent="1" source="JqMCCjy-eIhB1s-yT85j-30" target="JqMCCjy-eIhB1s-yT85j-31">
          <mxGeometry relative="1" as="geometry" />
        </mxCell>
        <mxCell id="JqMCCjy-eIhB1s-yT85j-30" value="Range Finder&lt;br&gt;(SF11/C)" style="rounded=0;whiteSpace=wrap;html=1;" vertex="1" parent="1">
          <mxGeometry x="100" y="427.5" width="120" height="40" as="geometry" />
        </mxCell>
        <mxCell id="JqMCCjy-eIhB1s-yT85j-31" value="I2C" style="text;html=1;strokeColor=none;fillColor=none;align=left;verticalAlign=middle;whiteSpace=wrap;rounded=0;" vertex="1" parent="1">
          <mxGeometry x="300" y="435" width="60" height="25" as="geometry" />
        </mxCell>
        <mxCell id="JqMCCjy-eIhB1s-yT85j-55" style="edgeStyle=orthogonalEdgeStyle;rounded=0;orthogonalLoop=1;jettySize=auto;html=1;exitX=1;exitY=0.5;exitDx=0;exitDy=0;entryX=0;entryY=0.5;entryDx=0;entryDy=0;" edge="1" parent="1" source="JqMCCjy-eIhB1s-yT85j-33" target="JqMCCjy-eIhB1s-yT85j-35">
          <mxGeometry relative="1" as="geometry">
            <Array as="points">
              <mxPoint x="240" y="510" />
              <mxPoint x="240" y="480" />
            </Array>
          </mxGeometry>
        </mxCell>
        <mxCell id="JqMCCjy-eIhB1s-yT85j-33" value="Primary GPS&lt;br&gt;(Here)" style="rounded=0;whiteSpace=wrap;html=1;" vertex="1" parent="1">
          <mxGeometry x="100" y="490" width="120" height="40" as="geometry" />
        </mxCell>
        <mxCell id="JqMCCjy-eIhB1s-yT85j-35" value="GPS 1" style="text;html=1;strokeColor=none;fillColor=none;align=left;verticalAlign=middle;whiteSpace=wrap;rounded=0;" vertex="1" parent="1">
          <mxGeometry x="300" y="467.5" width="60" height="25" as="geometry" />
        </mxCell>
        <mxCell id="JqMCCjy-eIhB1s-yT85j-56" style="edgeStyle=orthogonalEdgeStyle;rounded=0;orthogonalLoop=1;jettySize=auto;html=1;exitX=1;exitY=0.5;exitDx=0;exitDy=0;entryX=0;entryY=0.5;entryDx=0;entryDy=0;" edge="1" parent="1" source="JqMCCjy-eIhB1s-yT85j-37" target="JqMCCjy-eIhB1s-yT85j-54">
          <mxGeometry relative="1" as="geometry" />
        </mxCell>
        <mxCell id="JqMCCjy-eIhB1s-yT85j-37" value="Secondary GPS&lt;br&gt;(Here2)" style="rounded=0;whiteSpace=wrap;html=1;" vertex="1" parent="1">
          <mxGeometry x="100" y="550" width="120" height="40" as="geometry" />
        </mxCell>
        <mxCell id="JqMCCjy-eIhB1s-yT85j-40" style="edgeStyle=orthogonalEdgeStyle;rounded=0;orthogonalLoop=1;jettySize=auto;html=1;exitX=1;exitY=0.5;exitDx=0;exitDy=0;entryX=0;entryY=0.5;entryDx=0;entryDy=0;strokeWidth=3;fillColor=#f8cecc;strokeColor=#b85450;" edge="1" parent="1" source="JqMCCjy-eIhB1s-yT85j-41" target="JqMCCjy-eIhB1s-yT85j-46">
          <mxGeometry relative="1" as="geometry" />
        </mxCell>
        <mxCell id="JqMCCjy-eIhB1s-yT85j-41" value="Battery 1" style="rounded=0;whiteSpace=wrap;html=1;" vertex="1" parent="1">
          <mxGeometry x="100" y="120" width="120" height="40" as="geometry" />
        </mxCell>
        <mxCell id="JqMCCjy-eIhB1s-yT85j-42" style="edgeStyle=orthogonalEdgeStyle;rounded=0;orthogonalLoop=1;jettySize=auto;html=1;exitX=1;exitY=0.5;exitDx=0;exitDy=0;entryX=0;entryY=0.5;entryDx=0;entryDy=0;strokeWidth=3;fillColor=#f8cecc;strokeColor=#b85450;" edge="1" parent="1" source="JqMCCjy-eIhB1s-yT85j-43" target="JqMCCjy-eIhB1s-yT85j-46">
          <mxGeometry relative="1" as="geometry" />
        </mxCell>
        <mxCell id="JqMCCjy-eIhB1s-yT85j-43" value="Battery 2" style="rounded=0;whiteSpace=wrap;html=1;" vertex="1" parent="1">
          <mxGeometry x="100" y="170" width="120" height="40" as="geometry" />
        </mxCell>
        <mxCell id="JqMCCjy-eIhB1s-yT85j-44" style="edgeStyle=orthogonalEdgeStyle;rounded=0;orthogonalLoop=1;jettySize=auto;html=1;exitX=0.5;exitY=1;exitDx=0;exitDy=0;entryX=0.5;entryY=0;entryDx=0;entryDy=0;fillColor=#f8cecc;strokeColor=#b85450;" edge="1" parent="1" source="JqMCCjy-eIhB1s-yT85j-46" target="JqMCCjy-eIhB1s-yT85j-49">
          <mxGeometry relative="1" as="geometry" />
        </mxCell>
        <mxCell id="JqMCCjy-eIhB1s-yT85j-45" style="edgeStyle=orthogonalEdgeStyle;rounded=0;orthogonalLoop=1;jettySize=auto;html=1;exitX=1;exitY=0.5;exitDx=0;exitDy=0;entryX=0;entryY=0.5;entryDx=0;entryDy=0;strokeWidth=3;fillColor=#f8cecc;strokeColor=#b85450;" edge="1" parent="1" source="JqMCCjy-eIhB1s-yT85j-46" target="JqMCCjy-eIhB1s-yT85j-48">
          <mxGeometry relative="1" as="geometry" />
        </mxCell>
        <mxCell id="JqMCCjy-eIhB1s-yT85j-46" value="BEC" style="rounded=0;whiteSpace=wrap;html=1;" vertex="1" parent="1">
          <mxGeometry x="300" y="120" width="60" height="40" as="geometry" />
        </mxCell>
        <mxCell id="JqMCCjy-eIhB1s-yT85j-47" style="edgeStyle=orthogonalEdgeStyle;rounded=0;orthogonalLoop=1;jettySize=auto;html=1;exitX=1;exitY=0.5;exitDx=0;exitDy=0;endArrow=dash;endFill=0;strokeWidth=3;fillColor=#f8cecc;strokeColor=#b85450;" edge="1" parent="1" source="JqMCCjy-eIhB1s-yT85j-48">
          <mxGeometry relative="1" as="geometry">
            <mxPoint x="490" y="139.83333333333337" as="targetPoint" />
          </mxGeometry>
        </mxCell>
        <mxCell id="JqMCCjy-eIhB1s-yT85j-48" value="PDB" style="rounded=0;whiteSpace=wrap;html=1;" vertex="1" parent="1">
          <mxGeometry x="390" y="120" width="60" height="40" as="geometry" />
        </mxCell>
        <mxCell id="JqMCCjy-eIhB1s-yT85j-49" value="PWR 1" style="text;html=1;strokeColor=none;fillColor=none;align=center;verticalAlign=middle;whiteSpace=wrap;rounded=0;" vertex="1" parent="1">
          <mxGeometry x="300" y="260" width="60" height="25" as="geometry" />
        </mxCell>
        <mxCell id="JqMCCjy-eIhB1s-yT85j-50" value="*parallel" style="text;html=1;strokeColor=none;fillColor=none;align=center;verticalAlign=middle;whiteSpace=wrap;rounded=0;" vertex="1" parent="1">
          <mxGeometry x="230" y="110" width="60" height="30" as="geometry" />
        </mxCell>
        <mxCell id="JqMCCjy-eIhB1s-yT85j-51" value="*all motors" style="text;html=1;strokeColor=none;fillColor=none;align=center;verticalAlign=middle;whiteSpace=wrap;rounded=0;" vertex="1" parent="1">
          <mxGeometry x="490" y="125" width="60" height="30" as="geometry" />
        </mxCell>
        <mxCell id="JqMCCjy-eIhB1s-yT85j-52" value="" style="rounded=0;whiteSpace=wrap;html=1;dashed=1;fillColor=none;" vertex="1" parent="1">
          <mxGeometry x="90" y="110" width="140" height="110" as="geometry" />
        </mxCell>
        <mxCell id="JqMCCjy-eIhB1s-yT85j-53" value="*mandatory&amp;nbsp;dual battery" style="text;html=1;strokeColor=none;fillColor=none;align=center;verticalAlign=middle;whiteSpace=wrap;rounded=0;" vertex="1" parent="1">
          <mxGeometry x="90" y="80" width="140" height="30" as="geometry" />
        </mxCell>
        <mxCell id="JqMCCjy-eIhB1s-yT85j-54" value="GPS 2" style="text;html=1;strokeColor=none;fillColor=none;align=left;verticalAlign=middle;whiteSpace=wrap;rounded=0;" vertex="1" parent="1">
          <mxGeometry x="300" y="492.5" width="60" height="25" as="geometry" />
        </mxCell>
      </root>
    </mxGraphModel>
  </diagram>
</mxfile>
